<svg xmlns="http://www.w3.org/2000/svg" width="960" height="640" viewBox="0 0 960 640">
  <defs>
    <linearGradient id="sky" x1="0" x2="0" y1="0" y2="1">
      <stop offset="0%" stop-color="#1a1630"/>
      <stop offset="100%" stop-color="#0a1020"/>
    </linearGradient>
  </defs>
  <rect width="960" height="640" fill="url(#sky)"/>
  <g opacity="0.85">
    <rect x="0" y="420" width="960" height="220" fill="#1b4332"/>
    <rect x="0" y="470" width="960" height="170" fill="#2d6a4f"/>
    <rect x="0" y="520" width="960" height="120" fill="#40916c"/>
  </g>
  <g fill="#ffe066">
    <rect x="80" y="84" width="6" height="6"/>
    <rect x="180" y="128" width="4" height="4"/>
    <rect x="276" y="82" width="6" height="6"/>
    <rect x="412" y="146" width="4" height="4"/>
    <rect x="520" y="90" width="6" height="6"/>
    <rect x="684" y="118" width="4" height="4"/>
    <rect x="780" y="72" width="6" height="6"/>
    <rect x="862" y="124" width="4" height="4"/>
  </g>
  <g opacity="0.95">
    <rect x="60" y="520" width="120" height="70" fill="#d9ed92"/>
    <rect x="94" y="488" width="52" height="44" fill="#bc4749"/>
    <polygon points="88,488 120,458 152,488" fill="#7f5539"/>
    <rect x="116" y="548" width="18" height="42" fill="#6d6875"/>
    <rect x="210" y="498" width="20" height="92" fill="#7f5539"/>
    <circle cx="220" cy="478" r="46" fill="#386641"/>
    <circle cx="198" cy="488" r="24" fill="#6a994e"/>
    <circle cx="242" cy="490" r="22" fill="#6a994e"/>
    <rect x="722" y="484" width="26" height="106" fill="#7f5539"/>
    <circle cx="736" cy="448" r="56" fill="#386641"/>
    <circle cx="700" cy="456" r="28" fill="#6a994e"/>
    <circle cx="772" cy="456" r="28" fill="#6a994e"/>
    <rect x="802" y="502" width="82" height="88" fill="#dde5b6"/>
    <polygon points="794,502 843,468 892,502" fill="#9c6644"/>
    <rect x="834" y="540" width="18" height="50" fill="#6d6875"/>
  </g>
  <g opacity="0.55">
    <rect x="0" y="590" width="960" height="50" fill="#08131f"/>
  </g>
</svg>
